<svg width="20" height="20" viewBox="0 0 20 20" fill="none" xmlns="http://www.w3.org/2000/svg">
<path d="M2.08404 17.9154L3.25063 16.7489M16.7497 3.25049L17.9163 2.08394M8.00037 11.9993L12.0001 7.99971M14.6631 10.6396C14.9757 10.9522 15.3996 11.1278 15.8417 11.1278C16.2838 11.1278 16.7078 10.9522 17.0204 10.6396C17.333 10.327 17.5086 9.90303 17.5086 9.46095C17.5086 9.01888 17.333 8.59491 17.0204 8.28231L15.5472 6.80996C15.8598 7.12244 16.2837 7.29795 16.7257 7.29787C16.9446 7.29783 17.1613 7.25468 17.3635 7.1709C17.5656 7.08711 17.7493 6.96432 17.9041 6.80954C18.0588 6.65476 18.1815 6.47102 18.2653 6.26881C18.349 6.0666 18.392 5.84988 18.392 5.63102C18.392 5.41217 18.3488 5.19547 18.265 4.99328C18.1812 4.7911 18.0584 4.60741 17.9037 4.45268L15.5472 2.09624C15.2347 1.78365 14.8108 1.60799 14.3688 1.60791C13.9268 1.60783 13.5029 1.78334 13.1902 2.09582C12.8776 2.40831 12.702 2.83217 12.7019 3.27417C12.7018 3.71616 12.8773 4.14009 13.1898 4.45268L11.7174 2.97949C11.5627 2.82471 11.3789 2.70193 11.1767 2.61816C10.9744 2.5344 10.7577 2.49128 10.5388 2.49128C10.3199 2.49128 10.1031 2.5344 9.90088 2.61816C9.69865 2.70193 9.51489 2.82471 9.36011 2.97949C9.20532 3.13427 9.08254 3.31802 8.99877 3.52025C8.915 3.72248 8.87189 3.93923 8.87189 4.15813C8.87189 4.37702 8.915 4.59377 8.99877 4.796C9.08254 4.99823 9.20532 5.18198 9.36011 5.33676L14.6631 10.6396ZM4.45284 17.9036C4.76533 18.2162 5.18921 18.3918 5.63121 18.3919C5.85007 18.3919 6.0668 18.3489 6.26901 18.2652C6.47123 18.1814 6.65497 18.0587 6.80976 17.904C6.96454 17.7493 7.08733 17.5656 7.17112 17.3634C7.25491 17.1612 7.29806 16.9445 7.2981 16.7257C7.29814 16.5068 7.25507 16.2901 7.17135 16.0879C7.08763 15.8857 6.9649 15.7019 6.81017 15.5471L8.28257 17.0203C8.59517 17.3329 9.01915 17.5085 9.46123 17.5085C9.90332 17.5085 10.3273 17.3329 10.6399 17.0203C10.9525 16.7077 11.1281 16.2838 11.1281 15.8417C11.1281 15.3996 10.9525 14.9757 10.6399 14.6631L5.33694 9.36023C5.18216 9.20545 4.9984 9.08267 4.79617 8.99891C4.59393 8.91514 4.37718 8.87203 4.15828 8.87203C3.93938 8.87203 3.72263 8.91514 3.52039 8.99891C3.31815 9.08267 3.1344 9.20545 2.97961 9.36023C2.82483 9.51501 2.70205 9.69877 2.61828 9.901C2.53451 10.1032 2.49139 10.32 2.49139 10.5389C2.49139 10.7578 2.53451 10.9745 2.61828 11.1767C2.70205 11.379 2.82483 11.5627 2.97961 11.7175L4.45284 13.1899C4.14024 12.8774 3.7163 12.7019 3.2743 12.702C2.83229 12.702 2.40842 12.8777 2.09593 13.1903C1.78344 13.5029 1.60792 13.9268 1.608 14.3688C1.60808 14.8108 1.78374 15.2347 2.09634 15.5471L4.45284 17.9036Z" stroke="#696B61" stroke-width="0.5" stroke-linecap="round"/>
</svg>
